<svg width="512" height="512" viewBox="0 0 512 512" fill="none" xmlns="http://www.w3.org/2000/svg">
<rect width="512" height="512" rx="256" fill="#0852E7"/>
<path d="M386 196.55H357.069C354.914 185.804 351.015 175.876 345.372 166.768C339.832 157.556 332.856 149.522 324.443 142.665C316.031 135.808 306.489 130.486 295.82 126.699C285.15 122.913 273.609 121.019 261.194 121.019C241.291 121.019 223.132 126.188 206.717 136.525C190.404 146.862 177.323 162.06 167.474 182.119C157.728 202.076 152.854 226.536 152.854 255.5C152.854 284.668 157.728 309.23 167.474 329.188C177.323 349.145 190.404 364.293 206.717 374.63C223.132 384.864 241.291 389.981 261.194 389.981C273.609 389.981 285.15 388.087 295.82 384.301C306.489 380.514 316.031 375.243 324.443 368.488C332.856 361.631 339.832 353.597 345.372 344.386C351.015 335.176 354.914 325.196 357.069 314.45H386C383.436 328.881 378.614 342.339 371.535 354.825C364.558 367.209 355.633 378.057 344.757 387.371C333.985 396.684 321.571 403.951 307.516 409.17C293.46 414.39 278.019 417 261.194 417C234.724 417 211.231 410.399 190.712 397.196C170.193 383.892 154.086 365.162 142.39 341.009C130.797 316.856 125 288.352 125 255.5C125 222.648 130.797 194.144 142.39 169.991C154.086 145.838 170.193 127.16 190.712 113.958C211.231 100.653 234.724 94 261.194 94C278.019 94 293.46 96.6099 307.516 101.83C321.571 106.947 333.985 114.214 344.757 123.629C355.633 132.943 364.558 143.791 371.535 156.175C378.614 168.559 383.436 182.016 386 196.55Z" fill="#EDF6FA"/>
</svg>
