<svg width="43" height="32" viewBox="0 0 43 32" fill="none" xmlns="http://www.w3.org/2000/svg">
<path d="M9.95359 24.2685C8.7367 24.2685 7.74682 23.2806 7.74682 22.0661V18.1477C7.74682 17.2586 7.02379 16.5369 6.1329 16.5369H2.20569C0.988796 16.5369 0 15.549 0 14.3356V9.93399C0 8.7195 0.989872 7.73265 2.20569 7.73265H6.1329C7.02379 7.73265 7.74682 7.01104 7.74682 6.12191V2.03278C7.74682 0.91171 8.6603 3.24249e-05 9.78359 3.24249e-05H22.2786C23.4019 3.24249e-05 24.3153 0.91171 24.3153 2.03278V6.77158C24.3153 7.89265 23.4019 8.80433 22.2786 8.80433H10.4356C9.54473 8.80433 8.82169 9.52594 8.82169 10.4151V13.8513C8.82169 14.7404 9.54473 15.462 10.4356 15.462H22.1086C23.3255 15.462 24.3153 16.45 24.3153 17.6645V22.0661C24.3153 23.2806 23.3255 24.2685 22.1086 24.2685H9.95144H9.95359Z" fill="url(#paint0_linear_863_998)"/>
<path d="M28.279 32C27.1557 32 26.2422 31.0884 26.2422 29.9673V25.2285C26.2422 24.1074 27.1557 23.1957 28.279 23.1957H32.3751C33.266 23.1957 33.989 22.4741 33.989 21.585V18.1488C33.989 17.2596 33.266 16.538 32.3751 16.538H28.449C27.2321 16.538 26.2422 15.5501 26.2422 14.3356V9.93399C26.2422 8.71949 27.2321 7.73157 28.449 7.73157H32.8593C34.0762 7.73157 35.066 8.71949 35.066 9.93399V13.8524C35.066 14.7415 35.7891 15.4631 36.68 15.4631H40.6072C41.8241 15.4631 42.8129 16.451 42.8129 17.6645V22.0661C42.8129 23.2806 41.823 24.2674 40.6072 24.2674H36.68C35.7891 24.2674 35.066 24.989 35.066 25.8781V29.9662C35.066 31.0873 34.1526 31.999 33.0293 31.999H28.2811L28.279 32Z" fill="url(#paint1_linear_863_998)"/>
<defs>
<linearGradient id="paint0_linear_863_998" x1="12.1577" y1="3.24249e-05" x2="12.1577" y2="24.2685" gradientUnits="userSpaceOnUse">
<stop stop-color="#01FE91"/>
<stop offset="1" stop-color="#01FFFF"/>
</linearGradient>
<linearGradient id="paint1_linear_863_998" x1="34.5275" y1="7.73157" x2="34.5275" y2="32" gradientUnits="userSpaceOnUse">
<stop stop-color="#01FE91"/>
<stop offset="1" stop-color="#01FFFF"/>
</linearGradient>
</defs>
</svg>
