<svg width="18" height="14" viewBox="0 0 18 14" fill="none" xmlns="http://www.w3.org/2000/svg">
<path d="M1.06282 6.39944C1.10131 6.3805 1.13981 6.36249 1.17733 6.34544C1.82964 6.04799 2.4906 5.76948 3.1506 5.49098C3.1862 5.49098 3.24583 5.45024 3.27951 5.43697C3.3305 5.41519 3.3815 5.39435 3.43249 5.37256C3.53062 5.33088 3.62876 5.29014 3.72593 5.24846C3.9222 5.16605 4.11749 5.08365 4.31376 5.00123C4.70534 4.8364 5.09691 4.67157 5.48848 4.5058C6.27163 4.17614 7.05576 3.84551 7.83891 3.51585C8.62206 3.18619 9.40617 2.85559 10.1893 2.52593C10.9725 2.19627 11.7566 1.86566 12.5397 1.53601C13.3229 1.20635 14.107 0.875743 14.8901 0.546083C15.0643 0.472194 15.2529 0.362304 15.4395 0.330096C15.5963 0.302624 15.7493 0.249584 15.9071 0.220218C16.2063 0.164327 16.5363 0.141588 16.823 0.26379C16.9221 0.306418 17.0135 0.366086 17.0895 0.440922C17.4532 0.795212 17.4022 1.37687 17.3252 1.87515C16.7893 5.34794 16.2534 8.82168 15.7166 12.2945C15.6435 12.771 15.5434 13.2939 15.1614 13.5951C14.8382 13.8499 14.3783 13.8783 13.979 13.7704C13.5797 13.6614 13.2276 13.4331 12.8822 13.2086C11.4497 12.2746 10.0161 11.3405 8.58358 10.4065C8.24299 10.1848 7.86393 9.89497 7.86778 9.49236C7.8697 9.24986 8.01689 9.03386 8.16698 8.84156C9.41194 7.24252 11.2082 6.14367 12.5445 4.61852C12.7331 4.40348 12.8813 4.0151 12.6225 3.891C12.4685 3.81711 12.2915 3.9175 12.151 4.01318C10.3846 5.22099 8.61917 6.42974 6.85276 7.63755C6.27646 8.03162 5.67226 8.43706 4.97763 8.53369C4.35611 8.62084 3.73075 8.45033 3.12944 8.27602C2.6253 8.13014 2.1221 7.98047 1.62085 7.82606C1.35434 7.74459 1.07918 7.65649 0.873293 7.47177C0.667403 7.28705 0.549081 6.97635 0.673192 6.73005C0.751122 6.57564 0.902175 6.47807 1.06092 6.3985L1.06282 6.39944Z" fill="white"/>
</svg>
