<svg width="24" height="24" viewBox="0 0 24 24" fill="none" xmlns="http://www.w3.org/2000/svg">
<rect width="24" height="24" rx="12" fill="#05F88F" fill-opacity="0.28"/>
<path d="M15.3333 13.3333H15.34M8.66667 8.66667H16.6667C17.0203 8.66667 17.3594 8.80714 17.6095 9.05719C17.8595 9.30724 18 9.64638 18 10V16.6667C18 17.0203 17.8595 17.3594 17.6095 17.6095C17.3594 17.8595 17.0203 18 16.6667 18H7.33333C6.97971 18 6.64057 17.8595 6.39052 17.6095C6.14048 17.3594 6 17.0203 6 16.6667V7.33333C6 6.97971 6.14048 6.64057 6.39052 6.39052C6.64057 6.14048 6.97971 6 7.33333 6H16.6667" stroke="#01FE91" stroke-linecap="round" stroke-linejoin="round"/>
</svg>
