<svg width="600" height="373" viewBox="0 0 600 373" fill="none" xmlns="http://www.w3.org/2000/svg">
<path d="M1.88474e-07 357.195C8.46247e-08 365.904 7.08948 373 15.7894 373L129.474 373C138.174 373 145.263 365.904 145.263 357.195L145.263 282.911C145.263 269.824 155.874 259.203 168.947 259.203L203.684 259.203C216.758 259.203 227.368 269.824 227.368 282.911L227.368 357.195C227.368 365.904 234.458 373 243.158 373L356.842 373C365.542 373 372.632 365.904 372.632 357.195L372.632 282.911C372.632 269.824 383.242 259.203 396.316 259.203L431.053 259.203C444.126 259.203 454.737 269.824 454.737 282.911L454.737 357.195C454.737 365.904 461.826 373 470.526 373L584.211 373C592.911 373 600 365.904 600 357.195L600 243.398C600 234.69 592.911 227.593 584.211 227.593L510 227.593C496.926 227.593 486.316 216.972 486.316 203.886L486.316 129.602C486.316 120.893 479.226 113.797 470.526 113.797L396.316 113.797C383.242 113.797 372.632 103.176 372.632 90.089L372.632 15.8051C372.632 7.09649 365.542 -2.79588e-06 356.842 -2.89963e-06L243.158 -4.2553e-06C234.458 -4.35905e-06 227.368 7.09649 227.368 15.8051L227.368 90.089C227.368 103.176 216.758 113.797 203.684 113.797L129.474 113.797C120.774 113.797 113.684 120.893 113.684 129.602L113.684 203.886C113.684 216.972 103.074 227.593 90 227.593L15.7894 227.593C7.08948 227.593 1.64933e-06 234.69 1.54548e-06 243.398L1.88474e-07 357.195ZM341.053 203.886C341.053 216.972 330.442 227.593 317.368 227.593L282.632 227.593C269.558 227.593 258.947 216.972 258.947 203.886L258.947 169.114C258.947 156.028 269.558 145.407 282.632 145.407L317.368 145.407C330.442 145.407 341.053 156.028 341.053 169.114L341.053 203.886Z" fill="#01FE91"/>
</svg>
