<svg width="600" height="373" viewBox="0 0 600 373" fill="none" xmlns="http://www.w3.org/2000/svg">
<path d="M-5.66507e-06 129.602C-5.28441e-06 120.893 7.08947 113.797 15.7894 113.797L203.684 113.797C216.758 113.797 227.368 103.176 227.368 90.089L227.368 15.8051C227.368 7.09647 234.458 -1.59784e-05 243.158 -1.55981e-05L470.526 -5.65947e-06C479.226 -5.27919e-06 486.316 7.09648 486.316 15.8051L486.316 90.089C486.316 103.176 496.926 113.797 510 113.797L584.211 113.797C592.911 113.797 600 120.893 600 129.602L600 243.398C600 252.107 592.911 259.203 584.211 259.203L470.526 259.203C461.826 259.203 454.737 252.107 454.737 243.398L454.737 169.114C454.737 156.028 444.126 145.407 431.053 145.407L282.632 145.407C269.558 145.407 258.947 156.028 258.947 169.114L258.947 203.886C258.947 216.972 269.558 227.593 282.632 227.593L356.842 227.593C365.542 227.593 372.632 234.69 372.632 243.398L372.632 357.195C372.632 365.904 365.542 373 356.842 373L243.158 373C234.458 373 227.368 365.904 227.368 357.195L227.368 282.911C227.368 269.824 216.758 259.203 203.684 259.203L168.947 259.203C155.874 259.203 145.263 269.824 145.263 282.911L145.263 357.195C145.263 365.904 138.174 373 129.474 373L15.7894 373C7.08946 373 -1.59942e-05 365.904 -1.56135e-05 357.195L-5.66507e-06 129.602Z" fill="#01FFFF"/>
</svg>
