<svg width="471" height="373" viewBox="0 0 471 373" fill="none" xmlns="http://www.w3.org/2000/svg">
<path d="M471 273.695C471 280.368 465.564 285.805 458.892 285.805L391.087 285.805C381.062 285.805 372.925 293.943 372.925 303.971L372.925 360.89C372.925 367.562 367.489 373 360.818 373L273.64 373C266.969 373 261.532 367.562 261.532 360.89L261.532 303.971C261.532 293.943 253.396 285.805 243.37 285.805L129.555 285.805C119.53 285.805 111.393 293.943 111.393 303.971L111.393 360.89C111.393 367.562 105.957 373 99.2853 373L12.108 373C5.43648 373 -2.37683e-07 367.562 -5.29362e-07 360.89L-4.34077e-06 273.695C-4.63245e-06 267.022 5.43647 261.584 12.108 261.584L69.0154 261.584C79.0408 261.584 87.1774 253.446 87.1774 243.419L87.1774 216.776C87.1774 206.749 79.0408 198.61 69.0154 198.61L12.108 198.61C5.43647 198.61 -7.86049e-06 193.173 -8.15217e-06 186.5L-1.19636e-05 99.3052C-1.22553e-05 92.6324 5.43647 87.1948 12.108 87.1948L69.0154 87.1948C79.0408 87.1948 87.1774 79.0566 87.1774 69.0293L87.1774 12.1104C87.1774 5.43759 92.6138 2.64693e-05 99.2853 2.61777e-05L186.463 2.2367e-05C193.134 2.20754e-05 198.571 5.43758 198.571 12.1104L198.571 69.0293C198.571 79.0566 206.707 87.1948 216.733 87.1948L243.37 87.1948C253.396 87.1948 261.532 79.0566 261.532 69.0293L261.532 12.1104C261.532 5.43758 266.969 1.8848e-05 273.64 1.85564e-05L360.817 1.47457e-05C367.489 1.44541e-05 372.925 5.43758 372.925 12.1104L372.925 99.3052C372.925 105.978 367.489 111.416 360.817 111.416L303.91 111.416C293.885 111.416 285.748 119.554 285.748 129.581L285.748 243.419C285.748 253.446 293.885 261.584 303.91 261.584L341.445 261.584C351.47 261.584 359.607 253.446 359.607 243.419L359.607 186.5C359.607 179.827 365.043 174.39 371.715 174.39L458.892 174.39C465.564 174.39 471 179.827 471 186.5L471 273.695ZM111.393 156.224C111.393 166.251 119.53 174.39 129.555 174.39L156.193 174.39C166.218 174.39 174.355 166.251 174.355 156.224L174.355 129.581C174.355 119.554 166.218 111.416 156.193 111.416L129.555 111.416C119.53 111.416 111.393 119.554 111.393 129.581L111.393 156.224Z" fill="url(#paint0_linear_76_36)"/>
<defs>
<linearGradient id="paint0_linear_76_36" x1="-8.5214" y1="-2.89714e-05" x2="370.873" y2="217.57" gradientUnits="userSpaceOnUse">
<stop stop-color="#FF0000"/>
<stop offset="1" stop-color="#990000"/>
</linearGradient>
</defs>
</svg>
