<svg width="62" height="100" viewBox="0 0 62 100" fill="none" xmlns="http://www.w3.org/2000/svg">
<path d="M2.62695 1.5H21.542C22.1587 1.5 22.6699 2.00786 22.6699 2.63184V15C22.6699 18.005 25.1043 20.4473 28.1104 20.4473H33.8896C36.8957 20.4473 39.3301 18.005 39.3301 15V2.63184C39.3301 2.00786 39.8413 1.5 40.458 1.5H59.373C59.9897 1.50009 60.5 2.00792 60.5 2.63184V21.5791C60.4999 22.2029 59.9896 22.7108 59.373 22.7109H47.0254C44.0193 22.711 41.585 25.1532 41.585 28.1582V40.5264C41.5849 41.1502 41.0745 41.658 40.458 41.6582H28.1104C25.1043 41.6582 22.6699 44.1005 22.6699 47.1055V52.8945C22.6699 55.8995 25.1043 58.3418 28.1104 58.3418H40.458C41.0745 58.342 41.5849 58.8498 41.585 59.4736V71.8418C41.585 74.8468 44.0193 77.289 47.0254 77.2891H59.373C59.9896 77.2892 60.4999 77.797 60.5 78.4209V97.3682C60.5 97.9921 59.9897 98.4999 59.373 98.5H40.458C39.8413 98.5 39.3301 97.9921 39.3301 97.3682V85C39.3301 81.995 36.8957 79.5527 33.8896 79.5527H28.1104C25.1043 79.5527 22.6699 81.995 22.6699 85V97.3682C22.6699 97.9921 22.1587 98.5 21.542 98.5H2.62695C2.01031 98.4999 1.5 97.9921 1.5 97.3682V78.4209L1.50586 78.3057C1.56412 77.7357 2.04881 77.2891 2.62695 77.2891H14.9746C17.9807 77.289 20.415 74.8468 20.415 71.8418V66.0527C20.415 63.0478 17.9807 60.6055 14.9746 60.6055H2.62695C2.01031 60.6054 1.5 60.0976 1.5 59.4736V40.5264C1.5 39.9024 2.01031 39.3946 2.62695 39.3945H14.9746C17.9807 39.3945 20.415 36.9522 20.415 33.9473V28.1582C20.415 25.1532 17.9807 22.711 14.9746 22.7109H2.62695C2.01036 22.7108 1.50008 22.2029 1.5 21.5791V2.63184C1.5 2.00792 2.01031 1.50009 2.62695 1.5Z" stroke="#02B28C" stroke-width="3"/>
</svg>
