<svg width="31" height="50" viewBox="0 0 31 50" fill="none" xmlns="http://www.w3.org/2000/svg">
<path d="M10.7712 50C10.0474 50 9.45763 49.4092 9.45763 48.6842V42.5C9.45763 41.4105 8.57491 40.5263 7.48729 40.5263H1.31356C0.589788 40.5263 0 39.9355 0 39.2105V10.7895C0 10.0645 0.589788 9.47368 1.31356 9.47368H7.48729C8.57491 9.47368 9.45763 8.58947 9.45763 7.5V1.31579C9.45763 0.590789 10.0474 0 10.7712 0H20.2288C20.9526 0 21.5424 0.590789 21.5424 1.31579V7.5C21.5424 8.58947 22.4251 9.47368 23.5127 9.47368H29.6864C30.4102 9.47368 31 10.0645 31 10.7895V39.2105C31 39.9355 30.4102 40.5263 29.6864 40.5263H23.5127C22.4251 40.5263 21.5424 41.4105 21.5424 42.5V48.6842C21.5424 49.4092 20.9526 50 20.2288 50H10.7712ZM14.0551 12.1053C12.9675 12.1053 12.0847 12.9895 12.0847 14.0789V35.9211C12.0847 37.0105 12.9675 37.8947 14.0551 37.8947H16.9449C18.0325 37.8947 18.9153 37.0105 18.9153 35.9211V14.0789C18.9153 12.9895 18.0325 12.1053 16.9449 12.1053H14.0551Z" fill="black"/>
</svg>
