<svg width="311" height="500" viewBox="0 0 311 500" fill="none" xmlns="http://www.w3.org/2000/svg">
<path d="M202.684 500C195.434 500 189.526 494.092 189.526 486.842V425C189.526 414.105 180.684 405.263 169.79 405.263H140.842C129.947 405.263 121.105 414.105 121.105 425V486.842C121.105 494.092 115.197 500 107.947 500H13.2106C5.96063 500 0.0527344 494.092 0.0527344 486.842V392.105C0.0527344 384.855 5.96063 378.947 13.2106 378.947H75.0527C85.9475 378.947 94.7896 370.105 94.7896 359.211V330.263C94.7896 319.368 85.9475 310.526 75.0527 310.526H13.2106C5.96063 310.526 0.0527344 304.618 0.0527344 297.368V202.632C0.0527344 195.382 5.96063 189.474 13.2106 189.474H75.0527C85.9475 189.474 94.7896 180.632 94.7896 169.737V140.789C94.7896 129.895 85.9475 121.053 75.0527 121.053H13.2106C5.96063 121.053 0.0527344 115.145 0.0527344 107.895V13.1579C0.0527344 5.90789 5.96063 0 13.2106 0H107.947C115.197 0 121.105 5.90789 121.105 13.1579V75C121.105 85.8947 129.947 94.7368 140.842 94.7368H169.79C180.684 94.7368 189.526 85.8947 189.526 75V13.1579C189.526 5.90789 195.434 0 202.684 0H297.421C304.671 0 310.579 5.90789 310.579 13.1579V107.895C310.579 115.145 304.671 121.053 297.421 121.053H235.579C224.684 121.053 215.842 129.895 215.842 140.789V202.632C215.842 209.882 209.934 215.789 202.684 215.789H140.842C129.947 215.789 121.105 224.632 121.105 235.526V264.474C121.105 275.368 129.947 284.211 140.842 284.211H202.684C209.934 284.211 215.842 290.118 215.842 297.368V359.211C215.842 370.105 224.684 378.947 235.579 378.947H297.421C304.671 378.947 310.579 384.855 310.579 392.105V486.842C310.579 494.092 304.671 500 297.421 500H202.684Z" fill="black"/>
</svg>
