<svg width="31" height="50" viewBox="0 0 31 50" fill="none" xmlns="http://www.w3.org/2000/svg">
<path d="M1.31356 50C0.589788 50 0 49.4092 0 48.6842V39.2105C0 38.4855 0.589788 37.8947 1.31356 37.8947H7.48729C8.57491 37.8947 9.45763 37.0105 9.45763 35.9211V29.7368C9.45763 29.0118 10.0474 28.4211 10.7712 28.4211H16.9449C18.0325 28.4211 18.9153 27.5368 18.9153 26.4474V23.5526C18.9153 22.4632 18.0325 21.5789 16.9449 21.5789H10.7712C10.0474 21.5789 9.45763 20.9882 9.45763 20.2632V14.0789C9.45763 12.9895 8.57491 12.1053 7.48729 12.1053H1.31356C0.589788 12.1053 0 11.5145 0 10.7895V1.31579C0 0.590789 0.589788 0 1.31356 0H10.7712C11.495 0 12.0847 0.590789 12.0847 1.31579V7.5C12.0847 8.58947 12.9675 9.47368 14.0551 9.47368H20.2288C20.9526 9.47368 21.5424 10.0645 21.5424 10.7895V16.9737C21.5424 18.0632 22.4251 18.9474 23.5127 18.9474H29.6864C30.4102 18.9474 31 19.5382 31 20.2632V29.7368C31 30.4618 30.4102 31.0526 29.6864 31.0526H23.5127C22.4251 31.0526 21.5424 31.9368 21.5424 33.0263V39.2105C21.5424 39.9355 20.9526 40.5263 20.2288 40.5263H14.0551C12.9675 40.5263 12.0847 41.4105 12.0847 42.5V48.6842C12.0847 49.4092 11.495 50 10.7712 50H1.31356Z" fill="url(#paint0_linear_198_314)"/>
<defs>
<linearGradient id="paint0_linear_198_314" x1="15.5" y1="0" x2="15.5" y2="50" gradientUnits="userSpaceOnUse">
<stop stop-color="#01FE91"/>
<stop offset="1" stop-color="#01FFFF"/>
</linearGradient>
</defs>
</svg>
