<svg width="62" height="100" viewBox="0 0 62 100" fill="none" xmlns="http://www.w3.org/2000/svg">
<path d="M21.542 1.5H40.458C41.0746 1.50021 41.585 2.00799 41.585 2.63184V15C41.585 18.005 44.0193 20.4472 47.0254 20.4473H59.373C59.9897 20.4474 60.5 20.9552 60.5 21.5791V78.4209C60.5 79.0448 59.9897 79.5526 59.373 79.5527H47.0254C44.0193 79.5528 41.585 81.995 41.585 85V97.3682C41.585 97.992 41.0746 98.4998 40.458 98.5H21.542C20.9254 98.4998 20.415 97.992 20.415 97.3682V85C20.415 81.995 17.9807 79.5528 14.9746 79.5527H2.62695C2.01031 79.5526 1.5 79.0448 1.5 78.4209V21.5791C1.5 20.9552 2.01031 20.4474 2.62695 20.4473H14.9746C17.9807 20.4472 20.415 18.005 20.415 15V2.63184C20.415 2.00799 20.9254 1.50021 21.542 1.5ZM28.1104 22.7109C25.1043 22.7109 22.6699 25.1532 22.6699 28.1582V71.8418C22.6699 74.8468 25.1043 77.2891 28.1104 77.2891H33.8896C36.8957 77.2891 39.3301 74.8468 39.3301 71.8418V28.1582C39.3301 25.1532 36.8957 22.7109 33.8896 22.7109H28.1104Z" stroke="#02B28C" stroke-width="3"/>
</svg>
