<svg width="47" height="60" viewBox="0 0 47 60" fill="none" xmlns="http://www.w3.org/2000/svg">
<path d="M2.61572 0.5H30.6831C31.4812 0.5 32.1323 1.15127 32.1323 1.94824V11.1035C32.1323 12.9929 33.6665 14.5263 35.5562 14.5264H44.7173C45.5153 14.5264 46.1663 15.1768 46.1665 15.9736V30C46.1665 30.797 45.5154 31.4482 44.7173 31.4482H35.5562C33.6665 31.4483 32.1323 32.9808 32.1323 34.8701V39.1562C32.1325 41.0454 33.6666 42.578 35.5562 42.5781H44.7173C45.5154 42.5781 46.1665 43.2294 46.1665 44.0264V58.0518C46.1665 58.8487 45.5154 59.5 44.7173 59.5H30.6831C29.8852 59.4998 29.2339 58.8486 29.2339 58.0518V48.8965C29.2339 47.0072 27.7006 45.4739 25.811 45.4736H16.6499C15.8519 45.4736 15.2009 44.8232 15.2007 44.0264V30C15.2007 29.203 15.8518 28.5518 16.6499 28.5518H25.811C27.7006 28.5515 29.2339 27.0191 29.2339 25.1299V20.8438C29.2337 18.9547 27.7005 17.4221 25.811 17.4219H2.61572C1.81762 17.4219 1.1665 16.7706 1.1665 15.9736V1.94824C1.1665 1.15127 1.81762 0.5 2.61572 0.5Z" stroke="#01FE91"/>
</svg>
