<svg width="46" height="60" viewBox="0 0 46 60" fill="none" xmlns="http://www.w3.org/2000/svg">
<path d="M1.94922 0.5H15.9834C16.7813 0.500189 17.4326 1.15139 17.4326 1.94824V11.1035C17.4326 12.9928 18.9659 14.5261 20.8555 14.5264H25.1445C27.0341 14.5261 28.5674 12.9928 28.5674 11.1035V1.94824C28.5674 1.2011 29.14 0.58228 29.8691 0.507812L30.0166 0.5H44.0508C44.8489 0.5 45.5 1.15127 45.5 1.94824V15.9736C45.5 16.7706 44.8489 17.4219 44.0508 17.4219H34.8896C33.0001 17.422 31.466 18.9546 31.4658 20.8438V39.1562C31.466 41.0454 33.0001 42.578 34.8896 42.5781H44.0508C44.8489 42.5781 45.5 43.2294 45.5 44.0264V58.0518C45.5 58.8487 44.8489 59.5 44.0508 59.5H30.0166C29.2187 59.4998 28.5674 58.8486 28.5674 58.0518V48.8965C28.5674 47.0072 27.0341 45.4739 25.1445 45.4736H20.8555C18.9659 45.4739 17.4326 47.0072 17.4326 48.8965V58.0518C17.4326 58.8486 16.7813 59.4998 15.9834 59.5H1.94922C1.15111 59.5 0.5 58.8487 0.5 58.0518V44.0264L0.507812 43.8779C0.58248 43.1499 1.20115 42.5781 1.94922 42.5781H11.1104C12.9999 42.578 14.534 41.0454 14.5342 39.1562V20.8438C14.534 18.9546 12.9999 17.422 11.1104 17.4219H1.94922C1.15111 17.4219 0.5 16.7706 0.5 15.9736V1.94824C0.5 1.15127 1.15111 0.5 1.94922 0.5Z" stroke="#01FE91"/>
</svg>
