<svg width="47" height="60" viewBox="0 0 47 60" fill="none" xmlns="http://www.w3.org/2000/svg">
<path d="M2.28271 0.5H16.3169C17.1148 0.500189 17.7661 1.15139 17.7661 1.94824V11.1035C17.7661 12.9928 19.2994 14.5261 21.189 14.5264H25.478C27.3676 14.5261 28.9009 12.9928 28.9009 11.1035V1.94824C28.9009 1.2011 29.4735 0.58228 30.2026 0.507812L30.3501 0.5H44.3843C45.1824 0.5 45.8335 1.15127 45.8335 1.94824V15.9736C45.8335 16.7706 45.1824 17.4219 44.3843 17.4219H35.2231C33.3336 17.422 31.7995 18.9546 31.7993 20.8438V25.1299C31.7993 27.0192 33.3335 28.5517 35.2231 28.5518H44.3843C45.1824 28.5518 45.8335 29.203 45.8335 30V44.0264C45.8333 44.8232 45.1823 45.4736 44.3843 45.4736H35.2231C33.3335 45.4737 31.7993 47.0071 31.7993 48.8965V58.0518C31.7993 58.8487 31.1482 59.5 30.3501 59.5H16.3169C15.5188 59.5 14.8677 58.8487 14.8677 58.0518V48.8965C14.8677 47.0071 13.3335 45.4737 11.4438 45.4736H2.28271C1.48474 45.4736 0.83371 44.8232 0.833496 44.0264V30C0.833496 29.203 1.48461 28.5518 2.28271 28.5518H11.4438C13.3335 28.5517 14.8677 27.0192 14.8677 25.1299V20.8438C14.8675 18.9546 13.3334 17.422 11.4438 17.4219H2.28271C1.48461 17.4219 0.833496 16.7706 0.833496 15.9736V1.94824C0.833496 1.15127 1.48461 0.5 2.28271 0.5ZM21.189 31.4482C19.2994 31.4485 17.7661 32.9809 17.7661 34.8701V39.1562C17.7663 41.0453 19.2995 42.5779 21.189 42.5781H25.478C27.3675 42.5779 28.9007 41.0453 28.9009 39.1562V34.8701C28.9009 32.9809 27.3676 31.4485 25.478 31.4482H21.189Z" stroke="#01FE91"/>
</svg>
