<svg width="60" height="60" viewBox="0 0 60 60" fill="none" xmlns="http://www.w3.org/2000/svg">
<g style="mix-blend-mode:overlay">
<path d="M3.65854 60C1.64268 60 0 58.3573 0 56.3415V30C0 27.9841 1.64268 26.3415 3.65854 26.3415H20.8537C23.8829 26.3415 26.3415 23.8829 26.3415 20.8537V3.65854C26.3415 1.64268 27.9841 0 30 0H56.3415C58.3573 0 60 1.64268 60 3.65854V30C60 32.0159 58.3573 33.6585 56.3415 33.6585H39.1463C36.1171 33.6585 33.6585 36.1171 33.6585 39.1463V56.3415C33.6585 58.3573 32.0159 60 30 60H3.65854Z" fill="white"/>
</g>
</svg>
