<svg width="62" height="100" viewBox="0 0 62 100" fill="none" xmlns="http://www.w3.org/2000/svg">
<path d="M2.62695 1.5H21.542C22.1587 1.5 22.6699 2.00786 22.6699 2.63184V15C22.6699 18.005 25.1043 20.4473 28.1104 20.4473H40.458C41.0746 20.4475 41.585 20.9553 41.585 21.5791V33.9473C41.585 36.9522 44.0193 39.3945 47.0254 39.3945H59.373C59.9897 39.3946 60.5 39.9024 60.5 40.5264V59.4736C60.5 60.0976 59.9897 60.6054 59.373 60.6055H47.0254C44.0193 60.6055 41.585 63.0478 41.585 66.0527V78.4209C41.585 79.0447 41.0746 79.5525 40.458 79.5527H28.1104C25.1043 79.5527 22.6699 81.995 22.6699 85V97.3682C22.6699 97.9921 22.1587 98.5 21.542 98.5H2.62695C2.01031 98.4999 1.5 97.9921 1.5 97.3682V78.4209L1.50586 78.3057C1.56412 77.7357 2.04881 77.2891 2.62695 77.2891H14.9746C17.9807 77.289 20.415 74.8468 20.415 71.8418V59.4736C20.4151 58.8498 20.9255 58.342 21.542 58.3418H33.8896C36.8957 58.3418 39.3301 55.8995 39.3301 52.8945V47.1055C39.3301 44.1005 36.8957 41.6582 33.8896 41.6582H21.542C20.9255 41.658 20.4151 41.1502 20.415 40.5264V28.1582C20.415 25.1532 17.9807 22.711 14.9746 22.7109H2.62695C2.01036 22.7108 1.50008 22.2029 1.5 21.5791V2.63184C1.5 2.00792 2.01031 1.50009 2.62695 1.5Z" stroke="#02B28C" stroke-width="3"/>
</svg>
