<svg width="316" height="231" viewBox="0 0 316 231" fill="none" xmlns="http://www.w3.org/2000/svg">
<path d="M46.1416 0C47.7923 0.000206365 49.1377 1.34213 49.1377 2.98828V17.0303C49.1377 19.5042 51.151 21.5117 53.6318 21.5117H60.2236C62.7043 21.5115 64.7178 19.5041 64.7178 17.0303V2.98828C64.7178 1.342 66.063 -1.44326e-07 67.7139 0H110.858C112.509 1.44326e-07 113.854 1.342 113.854 2.98828V17.0303C113.854 19.5042 115.869 21.5117 118.35 21.5117H124.94C127.421 21.5117 129.436 19.5042 129.436 17.0303V2.98828C129.436 1.342 130.781 -1.44326e-07 132.432 0H154.004C155.655 4.63542e-05 157 1.34203 157 2.98828V24.5C157 26.1463 155.655 27.4882 154.004 27.4883H139.922C137.441 27.4883 135.428 29.4958 135.428 31.9697V45H316V231H0V2.98828C1.4392e-07 1.34203 1.34524 4.70263e-05 2.99609 0H46.1416ZM75.2041 27.4883C72.7233 27.4883 70.71 29.4959 70.71 31.9697V45H107.862V31.9697C107.862 29.4958 105.849 27.4883 103.368 27.4883H75.2041Z" fill="url(#paint0_linear_351_554)"/>
<defs>
<linearGradient id="paint0_linear_351_554" x1="111" y1="48.5" x2="1153.5" y2="299" gradientUnits="userSpaceOnUse">
<stop stop-color="#01FE91"/>
<stop offset="1" stop-color="#01FFFF"/>
</linearGradient>
</defs>
</svg>
