<svg width="1200" height="299" viewBox="0 0 1200 299" fill="none" xmlns="http://www.w3.org/2000/svg">
<path d="M142.244 0C147.333 4.4492e-07 151.48 4.13394 151.48 9.20703V52.4814C151.48 60.1051 157.688 66.293 165.336 66.293H185.656C193.304 66.293 199.512 60.1051 199.512 52.4814V9.20703C199.512 4.13396 203.659 3.56247e-05 208.748 0H341.756C346.845 6.35304e-05 350.992 4.13398 350.992 9.20703V52.4814C350.992 60.1051 357.2 66.293 364.848 66.293H385.168C392.816 66.293 399.022 60.1051 399.022 52.4814V9.20703C399.023 4.13395 403.17 -4.44919e-07 408.26 0H474.764C479.853 0.000162682 484 4.13405 484 9.20703V75.5C484 80.5731 479.853 84.7069 474.764 84.707H431.352C423.704 84.707 417.496 90.8949 417.496 98.5186V113H1200V299H0V9.20703C0.000156816 4.13405 4.14719 0.000184356 9.23633 0H142.244ZM231.84 84.707C224.192 84.707 217.984 90.8949 217.984 98.5186V113H332.52V98.5186C332.52 90.8949 326.312 84.707 318.664 84.707H231.84Z" fill="url(#paint0_linear_141_116)"/>
<defs>
<linearGradient id="paint0_linear_141_116" x1="111" y1="48.5" x2="1153.5" y2="299" gradientUnits="userSpaceOnUse">
<stop stop-color="#01FE91"/>
<stop offset="1" stop-color="#01FFFF"/>
</linearGradient>
</defs>
</svg>
