<svg width="185" height="291" viewBox="0 0 185 291" fill="none" xmlns="http://www.w3.org/2000/svg">
<g style="mix-blend-mode:overlay">
<path d="M11.7797 291C5.28907 291 0 285.718 0 279.237L0 194.542C0 188.061 5.28907 182.779 11.7797 182.779H67.1441C76.8976 182.779 84.8136 174.874 84.8136 165.134L84.8136 109.847C84.8136 103.366 90.1026 98.0842 96.5932 98.0842H151.958C161.711 98.0842 169.627 90.1794 169.627 80.4395V54.5605C169.627 44.8206 161.711 36.9158 151.958 36.9158H96.5932C90.1026 36.9158 84.8136 31.6341 84.8136 25.1526L84.8136 -30.1342C84.8136 -39.8741 76.8976 -47.7789 67.1441 -47.7789L11.7797 -47.7789C5.28907 -47.7789 0 -53.0606 0 -59.5421L0 -144.237C0 -150.718 5.28907 -156 11.7797 -156L96.5932 -156C103.084 -156 108.373 -150.718 108.373 -144.237L108.373 -88.95C108.373 -79.2101 116.289 -71.3053 126.042 -71.3053L181.407 -71.3053C187.897 -71.3053 193.186 -66.0236 193.186 -59.5421V-4.25526C193.186 5.48463 201.102 13.3895 210.856 13.3895L266.22 13.3895C272.711 13.3895 278 18.6711 278 25.1526V109.847C278 116.329 272.711 121.611 266.22 121.611H210.856C201.102 121.611 193.186 129.515 193.186 139.255V194.542C193.186 201.024 187.897 206.305 181.407 206.305L126.042 206.305C116.289 206.305 108.373 214.21 108.373 223.95L108.373 279.237C108.373 285.718 103.084 291 96.5932 291H11.7797Z" fill="white"/>
</g>
</svg>
