<svg width="180" height="288" viewBox="0 0 180 288" fill="none" xmlns="http://www.w3.org/2000/svg">
<g style="mix-blend-mode:overlay">
<path d="M181.407 288C174.916 288 169.627 282.718 169.627 276.237V220.95C169.627 211.21 161.711 203.305 151.958 203.305H126.042C116.289 203.305 108.373 211.21 108.373 220.95V276.237C108.373 282.718 103.084 288 96.5932 288H11.7797C5.28907 288 0 282.718 0 276.237V191.542C0 185.061 5.28907 179.779 11.7797 179.779H67.1441C76.8976 179.779 84.8136 171.874 84.8136 162.134V136.255C84.8136 126.515 76.8976 118.611 67.1441 118.611H11.7797C5.28907 118.611 0 113.329 0 106.847V22.1526C0 15.6711 5.28907 10.3895 11.7797 10.3895H67.1441C76.8976 10.3895 84.8136 2.48463 84.8136 -7.25526V-33.1342C84.8136 -42.8741 76.8976 -50.7789 67.1441 -50.7789H11.7797C5.28907 -50.7789 0 -56.0606 0 -62.5421V-147.237C0 -153.718 5.28907 -159 11.7797 -159H96.5932C103.084 -159 108.373 -153.718 108.373 -147.237V-91.95C108.373 -82.2101 116.289 -74.3053 126.042 -74.3053H151.958C161.711 -74.3053 169.627 -82.2101 169.627 -91.95V-147.237C169.627 -153.718 174.916 -159 181.407 -159H266.22C272.711 -159 278 -153.718 278 -147.237V-62.5421C278 -56.0606 272.711 -50.7789 266.22 -50.7789H210.856C201.102 -50.7789 193.186 -42.8741 193.186 -33.1342V22.1526C193.186 28.6341 187.897 33.9158 181.407 33.9158H126.042C116.289 33.9158 108.373 41.8206 108.373 51.5605V77.4395C108.373 87.1794 116.289 95.0842 126.042 95.0842H181.407C187.897 95.0842 193.186 100.366 193.186 106.847V162.134C193.186 171.874 201.102 179.779 210.856 179.779H266.22C272.711 179.779 278 185.061 278 191.542V276.237C278 282.718 272.711 288 266.22 288H181.407Z" fill="white"/>
</g>
</svg>
