<svg width="185" height="291" viewBox="0 0 185 291" fill="none" xmlns="http://www.w3.org/2000/svg">
<g style="mix-blend-mode:overlay">
<path d="M96.5932 291C90.1026 291 84.8136 285.718 84.8136 279.237V223.95C84.8136 214.21 76.8976 206.305 67.1441 206.305H11.7797C5.28907 206.305 0 201.024 0 194.542V-59.5421C0 -66.0236 5.28907 -71.3053 11.7797 -71.3053H67.1441C76.8976 -71.3053 84.8136 -79.2101 84.8136 -88.95V-144.237C84.8136 -150.718 90.1026 -156 96.5932 -156H181.407C187.897 -156 193.186 -150.718 193.186 -144.237V-88.95C193.186 -79.2101 201.102 -71.3053 210.856 -71.3053H266.22C272.711 -71.3053 278 -66.0236 278 -59.5421V194.542C278 201.024 272.711 206.305 266.22 206.305H210.856C201.102 206.305 193.186 214.21 193.186 223.95V279.237C193.186 285.718 187.897 291 181.407 291H96.5932ZM126.042 -47.7789C116.289 -47.7789 108.373 -39.8741 108.373 -30.1342V165.134C108.373 174.874 116.289 182.779 126.042 182.779H151.958C161.711 182.779 169.627 174.874 169.627 165.134V-30.1342C169.627 -39.8741 161.711 -47.7789 151.958 -47.7789H126.042Z" fill="white"/>
</g>
</svg>
